<svg width="82" height="28" viewBox="0 0 82 28" fill="#000000" xmlns="http://www.w3.org/2000/svg">
<path d="M16.8751 14.9012C16.8751 18.2773 14.182 21.0049 10.7726 21.0049C7.36316 21.0049 4.70398 18.3452 4.70398 14.9012C4.70398 13.2816 5.31731 11.8498 6.2893 10.7757L2.1647 14.9012L0 12.736L4.65304 8.13301C5.28335 7.50258 5.60806 6.68323 5.60806 5.78003V0H8.65879V5.78003C8.65879 7.55353 8.02849 9.05319 6.80076 10.2812L6.66388 10.4181C7.73774 9.42891 9.20421 8.83243 10.7715 8.83243C14.2318 8.83243 16.874 11.577 16.874 14.9022M14.113 14.9022C14.113 13.0948 12.6126 11.6291 10.7715 11.6291C8.93044 11.6291 7.46503 13.1637 7.46503 14.9022C7.46503 16.6407 8.93044 18.2093 10.7715 18.2093C12.6126 18.2093 14.113 16.6577 14.113 14.9022Z" fill="white"/>
<path d="M26.8947 8.96924C28.1744 8.96924 29.1687 9.23669 29.8754 9.77055C30.5821 10.3055 30.9355 11.0516 30.9355 12.0089C30.9355 12.7104 30.7487 13.2868 30.3763 13.7378C30.0028 14.1889 29.4669 14.4924 28.7644 14.6484C30.5121 14.9488 31.3865 15.8679 31.3865 17.4037C31.3865 18.4172 31.0108 19.2132 30.2595 19.7917C29.5083 20.3701 28.4365 20.6598 27.0454 20.6598H22.6035V8.96924H26.8947ZM24.5242 13.9299H26.9456C27.6025 13.9299 28.1118 13.7792 28.4737 13.4789C28.8355 13.1785 29.017 12.7667 29.017 12.2424C29.017 11.7181 28.8355 11.3105 28.4737 11.0155C28.1118 10.7204 27.6025 10.5729 26.9456 10.5729H24.5242V13.9299ZM24.5242 19.0403H27.0624C27.819 19.0403 28.4005 18.8874 28.8069 18.5807C29.2133 18.275 29.4159 17.8484 29.4159 17.3028C29.4159 16.7573 29.2101 16.2956 28.7984 15.9836C28.3867 15.6726 27.8073 15.5166 27.0624 15.5166H24.5242V19.0403Z" fill="white"/>
<path d="M32.2801 14.0882C32.6302 13.4259 33.1205 12.9133 33.7497 12.5514C34.379 12.1895 35.0995 12.009 35.9123 12.009C36.7251 12.009 37.4626 12.1757 38.0919 12.51C38.7211 12.8443 39.2156 13.3177 39.5785 13.929C39.9403 14.5414 40.1271 15.2599 40.1377 16.0835C40.1377 16.3064 40.1207 16.5346 40.0878 16.7681H33.6425V16.8678C33.6871 17.6139 33.9206 18.204 34.3439 18.6381C34.7663 19.0722 35.3287 19.2898 36.0301 19.2898C36.5872 19.2898 37.0541 19.1593 37.4329 18.8971C37.8117 18.636 38.0621 18.2656 38.1842 17.7869H39.9881C39.8321 18.6551 39.4119 19.3683 38.7275 19.9245C38.043 20.4817 37.1888 20.7597 36.1648 20.7597C35.2746 20.7597 34.4978 20.5793 33.8357 20.2174C33.1735 19.8555 32.661 19.346 32.2992 18.6891C31.9373 18.0321 31.7559 17.269 31.7559 16.4008C31.7559 15.5327 31.9309 14.7505 32.2822 14.0882M38.302 15.4499C38.2234 14.8269 37.9762 14.3397 37.5592 13.9884C37.1421 13.6382 36.6158 13.4631 35.9813 13.4631C35.3913 13.4631 34.8819 13.6446 34.4532 14.0054C34.0246 14.3673 33.7773 14.8492 33.7105 15.4499H38.302Z" fill="white"/>
<path d="M48.873 19.0902V20.6599H47.9211C47.364 20.6599 46.964 20.5431 46.7189 20.3097C46.4738 20.0762 46.3517 19.7365 46.3517 19.2908C45.7066 20.2704 44.7653 20.7607 43.5302 20.7607C42.5731 20.7607 41.8048 20.5378 41.2254 20.0931C40.646 19.6484 40.3574 19.035 40.3574 18.256C40.3574 17.3761 40.6694 16.7001 41.2923 16.2267C41.9152 15.7533 42.8224 15.5167 44.0141 15.5167H46.1682V14.9987C46.1682 14.5201 46.0016 14.1444 45.6673 13.8716C45.333 13.5988 44.8715 13.463 44.2815 13.463C43.7583 13.463 43.3265 13.5776 42.988 13.8047C42.6484 14.0329 42.4447 14.3365 42.3789 14.7154H40.6089C40.698 13.8578 41.0769 13.1934 41.7443 12.72C42.4118 12.2467 43.2861 12.01 44.3664 12.01C45.5124 12.01 46.3974 12.2775 47.0213 12.8113C47.6442 13.3462 47.9561 14.1136 47.9561 15.1165V18.4905C47.9561 18.8917 48.145 19.0912 48.5239 19.0912H48.874L48.873 19.0902ZM46.1682 16.8518H43.9302C43.3731 16.8518 42.9455 16.9601 42.6441 17.1777C42.3438 17.3952 42.1932 17.7147 42.1932 18.1382C42.1932 18.5054 42.3354 18.8004 42.6187 19.0233C42.902 19.2462 43.2893 19.3576 43.7796 19.3576C44.5255 19.3576 45.107 19.157 45.524 18.7569C45.9411 18.3557 46.1554 17.8219 46.1671 17.1532V16.8529L46.1682 16.8518Z" fill="white"/>
<path d="M49.5813 13.6954H48.0957V12.1087H49.5813V9.7207H51.4011V12.1087H53.4555V13.6954H51.4011V18.1551C51.4011 18.4895 51.468 18.7261 51.6017 18.8652C51.7354 19.0042 51.9635 19.0743 52.2861 19.0743H53.6549V20.6609H51.9179C51.1051 20.6609 50.513 20.472 50.1394 20.0931C49.767 19.7142 49.5802 19.1305 49.5802 18.3398V13.6965L49.5813 13.6954Z" fill="white"/>
<path d="M60.7926 12.5344C61.4049 12.8846 61.8835 13.392 62.2283 14.0542C62.5732 14.7165 62.7462 15.4934 62.7462 16.3839C62.7462 17.2743 62.5732 18.0183 62.2283 18.6806C61.8835 19.3429 61.4038 19.8555 60.7926 20.2174C60.1803 20.5793 59.4842 20.7597 58.7054 20.7597C58.0708 20.7597 57.5201 20.643 57.0521 20.4095C56.5842 20.176 56.2117 19.8587 55.9337 19.4575V24H54.1309V12.1088H55.7003L55.9178 13.3782C56.6075 12.4654 57.5371 12.009 58.7064 12.009C59.4853 12.009 60.1814 12.1842 60.7937 12.5355M60.2175 18.4397C60.6791 17.9048 60.9104 17.2202 60.9104 16.386C60.9104 15.5518 60.6791 14.8555 60.2175 14.3312C59.7548 13.808 59.151 13.5458 58.4051 13.5458C57.6591 13.5458 57.0585 13.8048 56.6022 14.3227C56.1459 14.8407 55.9178 15.5167 55.9178 16.352C55.9178 17.1873 56.1459 17.9048 56.6022 18.4397C57.0585 18.9746 57.6591 19.241 58.4051 19.241C59.151 19.241 59.7548 18.9735 60.2175 18.4397Z" fill="white"/>
<path d="M65.3795 20.2175C64.7174 19.8556 64.2049 19.344 63.843 18.6807C63.4812 18.0184 63.3008 17.2532 63.3008 16.3839C63.3008 15.5147 63.4812 14.7665 63.843 14.1042C64.2049 13.4419 64.7163 12.9261 65.3795 12.5589C66.0417 12.1917 66.8014 12.0081 67.6588 12.0081C68.5162 12.0081 69.276 12.1917 69.9381 12.5589C70.6003 12.9261 71.1128 13.4409 71.4746 14.1042C71.8365 14.7665 72.0169 15.5264 72.0169 16.3839C72.0169 17.2415 71.8354 18.0184 71.4746 18.6807C71.1128 19.3429 70.6003 19.8556 69.9381 20.2175C69.276 20.5794 68.5162 20.7598 67.6588 20.7598C66.8014 20.7598 66.0417 20.5794 65.3795 20.2175ZM69.4872 18.4302C69.9487 17.9017 70.1801 17.2192 70.1801 16.3839C70.1801 15.5487 69.9487 14.8673 69.4872 14.3377C69.0256 13.8091 68.4154 13.5438 67.6588 13.5438C66.9022 13.5438 66.2953 13.8081 65.839 14.3377C65.3827 14.8662 65.1546 15.5487 65.1546 16.3839C65.1546 17.2192 65.3827 17.9017 65.839 18.4302C66.2953 18.9587 66.9022 19.223 67.6588 19.223C68.4154 19.223 69.0256 18.9587 69.4872 18.4302Z" fill="white"/>
<path d="M77.3589 12.1087V13.7952H76.5576C75.8115 13.7952 75.2713 14.0372 74.938 14.5211C74.6037 15.0051 74.4371 15.6207 74.4371 16.3668V20.6588H72.6328V12.1077H74.2365L74.4371 13.394C74.6822 12.9928 74.9996 12.6787 75.3891 12.4505C75.7786 12.2223 76.3018 12.1077 76.9588 12.1077H77.36L77.3589 12.1087Z" fill="white"/>
<path d="M77.9414 9.7207H79.7457V12.1087H81.8163V13.6954H79.7457V18.1551C79.7457 18.4895 79.8125 18.7261 79.9463 18.8652C80.08 19.0053 80.3082 19.0743 80.6308 19.0743H81.9999V20.6609H80.2636C79.4506 20.6609 78.8605 20.472 78.4933 20.0931C78.1261 19.7142 77.9425 19.1305 77.9425 18.3398V9.72176L77.9414 9.7207Z" fill="white"/>
</svg>
