<svg viewBox="0 0 303.78000000000003 88.9" xmlns="http://www.w3.org/2000/svg" width="2500" height="732"><g fill="#01ff95"><path d="M62.51 55.19a22.54 22.54 0 1 1-39.2-15.28L8 55.19l-8-8 17.24-17a12.07 12.07 0 0 0 3.54-8.71V0h11.31v21.41a22.73 22.73 0 0 1-6.89 16.67l-.5.5a22.6 22.6 0 0 1 37.81 16.61m-10.22 0a12.32 12.32 0 1 0-12.38 12.25 12.27 12.27 0 0 0 12.38-12.25M99.64 33.22c4.74 0 8.42 1 11 3a9.79 9.79 0 0 1 3.93 8.28 9.67 9.67 0 0 1-2.07 6.4 10.4 10.4 0 0 1-6 3.37q9.71 1.66 9.71 10.21a10.58 10.58 0 0 1-4.18 8.85q-4.17 3.21-11.9 3.21H83.74V33.22zm-8.79 18.37h9a8.64 8.64 0 0 0 5.66-1.67 5.62 5.62 0 0 0 2-4.57 5.54 5.54 0 0 0-2-4.55 8.75 8.75 0 0 0-5.66-1.64h-9zm0 18.93h9.4a10.62 10.62 0 0 0 6.46-1.7 5.57 5.57 0 0 0 2.29-4.73 5.77 5.77 0 0 0-2.29-4.89 10.5 10.5 0 0 0-6.43-1.73h-9.4zM119.58 52.18A14 14 0 0 1 125 46.5a15.81 15.81 0 0 1 8-2 16.89 16.89 0 0 1 8.07 1.86 13.87 13.87 0 0 1 5.51 5.26 15.84 15.84 0 0 1 2.07 8 18.41 18.41 0 0 1-.19 2.53h-23.85v.36a9.9 9.9 0 0 0 2.61 6.49 8.29 8.29 0 0 0 6.24 2.41 8.87 8.87 0 0 0 5.19-1.41 6.86 6.86 0 0 0 2.79-4.11h6.68a12.84 12.84 0 0 1-4.67 7.92A14.59 14.59 0 0 1 134 76.9a17.69 17.69 0 0 1-8.63-2 14 14 0 0 1-5.69-5.66 17.28 17.28 0 0 1-2-8.47 18.28 18.28 0 0 1 2-8.58m22.31 5a8 8 0 0 0-2.75-5.41 8.77 8.77 0 0 0-5.85-1.94 8.51 8.51 0 0 0-5.66 2 7.88 7.88 0 0 0-2.75 5.35h17zM181.05 70.7v5.82h-3.52c-2.06 0-3.55-.43-4.45-1.3a4.91 4.91 0 0 1-1.36-3.77 11.74 11.74 0 0 1-10.45 5.44 13.65 13.65 0 0 1-8.54-2.47 8.16 8.16 0 0 1-3.22-6.81 8.89 8.89 0 0 1 3.49-7.52q3.47-2.64 10.08-2.63h8v-1.91a5.08 5.08 0 0 0-1.85-4.17 7.88 7.88 0 0 0-5.13-1.52 8.41 8.41 0 0 0-4.8 1.27 5 5 0 0 0-2.3 3.37h-6.56a9.93 9.93 0 0 1 4.21-7.4 16.47 16.47 0 0 1 9.71-2.63c4.24 0 7.53 1 9.84 3s3.46 4.82 3.46 8.53v12.47c0 1.48.7 2.23 2.11 2.23zm-10-8.28h-8.29a8.12 8.12 0 0 0-4.77 1.2 4.14 4.14 0 0 0-1.67 3.56 3.94 3.94 0 0 0 1.58 3.28 6.81 6.81 0 0 0 4.3 1.23 8.91 8.91 0 0 0 6.46-2.23 8 8 0 0 0 2.34-5.94zM183.68 50.73h-5.51v-5.88h5.51V36h6.74v8.84H198v5.88h-7.61v16.53a3.77 3.77 0 0 0 .74 2.63 3.43 3.43 0 0 0 2.53.77h5.07v5.87h-6.43c-3 0-5.2-.7-6.59-2.1s-2.07-3.57-2.07-6.5V50.73zM225.22 46.43a13.47 13.47 0 0 1 5.32 5.63 18.4 18.4 0 0 1 1.91 8.63 18.05 18.05 0 0 1-1.91 8.5 14 14 0 0 1-5.32 5.7 14.9 14.9 0 0 1-7.73 2 13.47 13.47 0 0 1-6.12-1.3 10.91 10.91 0 0 1-4.15-3.52V88.9h-6.68V44.85h5.82l.81 4.7a12.27 12.27 0 0 1 10.32-5.07 15.18 15.18 0 0 1 7.73 2m-2.13 21.86a11.27 11.27 0 0 0 2.56-7.6 11.14 11.14 0 0 0-2.56-7.61 9.2 9.2 0 0 0-13.4 0 10.93 10.93 0 0 0-2.53 7.52 11.43 11.43 0 0 0 2.53 7.72 8.33 8.33 0 0 0 6.68 3 8.42 8.42 0 0 0 6.72-3M242.2 74.88a14.1 14.1 0 0 1-5.69-5.69 17.39 17.39 0 0 1-2-8.5 17.32 17.32 0 0 1 2-8.44 14.18 14.18 0 0 1 5.69-5.72 18.4 18.4 0 0 1 16.88 0 14.12 14.12 0 0 1 5.69 5.72 17.35 17.35 0 0 1 2 8.44 17.39 17.39 0 0 1-2 8.5 14 14 0 0 1-5.69 5.69 18.72 18.72 0 0 1-16.88 0m15.22-6.62a11.07 11.07 0 0 0 2.58-7.57 11.1 11.1 0 0 0-2.56-7.58 8.59 8.59 0 0 0-6.78-2.94 8.46 8.46 0 0 0-6.74 2.94 11.18 11.18 0 0 0-2.53 7.58 11.15 11.15 0 0 0 2.53 7.57 8.47 8.47 0 0 0 6.74 2.95 8.63 8.63 0 0 0 6.78-2.95M286.58 44.84v6.25h-3c-2.76 0-4.76.89-6 2.69a11.81 11.81 0 0 0-1.86 6.83v15.9h-6.68V44.84H275l.74 4.77a10 10 0 0 1 3.52-3.49 11.44 11.44 0 0 1 5.82-1.28zM288.75 36h6.68v8.84h7.67v5.88h-7.67v16.53a3.77 3.77 0 0 0 .74 2.63 3.46 3.46 0 0 0 2.54.78h5.07v5.87h-6.44c-3 0-5.19-.7-6.56-2.1s-2-3.56-2-6.49V36z"/></g></svg>